<?xml version="1.0" encoding="utf-8"?>
<!-- Generator: Adobe Illustrator 18.1.1, SVG Export Plug-In . SVG Version: 6.00 Build 0)  -->
<svg version="1.1" id="Layer_1" xmlns="http://www.w3.org/2000/svg" xmlns:xlink="http://www.w3.org/1999/xlink" x="0px" y="0px"
	 viewBox="0 0 170 50" enable-background="new 0 0 170 50" xml:space="preserve">
<g>
	<path fill="#FFFFFF" d="M15.7,18.8c0.6-1.1,1.5-2.1,2.6-2.7c1.1-0.6,2.3-1,3.6-1c1.1,0,2.1,0.2,3.1,0.7c0.8,0.4,1.5,1,2.1,1.8v-2.2
		h3.1v15h-0.9c-1.2,0-2.2-1-2.2-2.2c0,0,0,0,0,0l0,0c-0.6,0.7-1.3,1.3-2.1,1.8c-1,0.5-2,0.7-3.1,0.7c-1.2,0-2.5-0.3-3.5-1
		c-1.1-0.7-2-1.6-2.6-2.8c-0.6-1.3-1-2.6-0.9-4.1C14.8,21.4,15.1,20.1,15.7,18.8z M26.4,20.2c-0.4-0.7-1-1.3-1.7-1.8
		c-0.7-0.4-1.5-0.6-2.2-0.6c-0.8,0-1.6,0.2-2.2,0.6c-0.7,0.4-1.3,1-1.7,1.7c-0.4,0.8-0.7,1.8-0.6,2.7c0,1,0.2,1.9,0.6,2.7
		c0.4,0.7,1,1.3,1.7,1.8c0.7,0.4,1.4,0.6,2.2,0.6c0.8,0,1.6-0.2,2.2-0.6c0.7-0.4,1.3-1,1.7-1.8c0.4-0.8,0.7-1.8,0.6-2.7
		C27.1,21.9,26.9,21,26.4,20.2L26.4,20.2z"/>
	<path fill="#FFFFFF" d="M43.4,15.9c0.9,0.5,1.7,1.3,2.1,2.2c0.5,1.1,0.8,2.3,0.8,3.5v8.8h-3.1V22c0.1-1.1-0.3-2.2-1-3.1
		c-0.7-0.7-1.7-1.1-2.8-1.1c-1-0.1-2,0.3-2.8,1.1c-0.7,0.9-1.1,2-1,3.1v8.4h-3.1V10.2l0,0c1.7,0,3.1,1.4,3.1,3.1v3.8
		c0.5-0.6,1.2-1.2,2-1.5c0.8-0.3,1.7-0.5,2.6-0.5C41.4,15.1,42.4,15.4,43.4,15.9z"/>
	<path fill="#FFFFFF" d="M49,18.8c0.6-1.1,1.5-2.1,2.6-2.7c1.1-0.6,2.3-1,3.6-1c1.1,0,2.1,0.2,3.1,0.7c0.8,0.4,1.5,1,2.1,1.8v-2.2
		h3.1v15h-0.9c-1.2,0-2.2-1-2.2-2.2c0,0,0,0,0,0l0,0c-0.6,0.7-1.3,1.3-2.1,1.8c-1,0.5-2,0.7-3.1,0.7c-1.2,0-2.5-0.3-3.5-1
		c-1.1-0.7-2-1.6-2.6-2.8c-0.6-1.3-1-2.6-0.9-4.1C48.1,21.4,48.4,20.1,49,18.8z M59.7,20.2c-0.4-0.7-1-1.3-1.7-1.8
		c-0.7-0.4-1.5-0.6-2.2-0.6c-0.8,0-1.6,0.2-2.2,0.6c-0.7,0.4-1.3,1-1.7,1.7c-0.4,0.8-0.7,1.8-0.6,2.7c0,1,0.2,1.9,0.6,2.7
		c0.4,0.7,1,1.3,1.7,1.8c0.7,0.4,1.4,0.6,2.2,0.6c0.8,0,1.6-0.2,2.2-0.6c0.7-0.4,1.3-1,1.7-1.8c0.4-0.8,0.7-1.8,0.6-2.7
		C60.4,21.9,60.1,21,59.7,20.2L59.7,20.2z"/>
	<path fill="#FFFFFF" d="M71.1,15.8c1-0.5,2-0.7,3.1-0.7c1.3,0,2.5,0.3,3.6,1c1.1,0.7,2,1.6,2.5,2.8c0.6,1.3,0.9,2.6,0.9,4
		c0,1.4-0.3,2.8-0.9,4.1c-0.6,1.1-1.5,2.1-2.6,2.8c-1.1,0.7-2.3,1-3.6,1c-1.1,0-2.1-0.2-3.1-0.7c-0.8-0.4-1.6-1-2.1-1.8v2.2h-3.1
		V10.2l0,0c1.7,0,3.1,1.4,3.1,3.1v4.3C69.5,16.9,70.2,16.2,71.1,15.8z M77.4,20.1c-0.4-0.7-1-1.3-1.7-1.7c-0.7-0.4-1.5-0.6-2.3-0.6
		c-0.8,0-1.6,0.2-2.2,0.6c-0.7,0.4-1.3,1-1.7,1.8c-0.4,0.8-0.7,1.8-0.6,2.7c0,0.9,0.2,1.9,0.6,2.7c0.4,0.7,1,1.3,1.7,1.8
		c0.7,0.4,1.4,0.6,2.2,0.6c0.8,0,1.6-0.2,2.3-0.6c0.7-0.4,1.3-1,1.7-1.8c0.4-0.8,0.7-1.8,0.6-2.7C78.1,21.9,77.9,21,77.4,20.1z"/>
	<path fill="#FFFFFF" d="M84.2,18.8c1.2-2.3,3.6-3.7,6.2-3.7c1.1,0,2.1,0.2,3.1,0.7c0.8,0.4,1.6,1,2.1,1.8v-2.2h3.1v15h-0.9
		c-1.2,0-2.2-1-2.2-2.2c0,0,0,0,0,0l0,0c-0.6,0.7-1.3,1.3-2.2,1.8c-1,0.5-2,0.7-3.1,0.7c-1.2,0-2.5-0.3-3.5-1
		c-1.1-0.7-2-1.6-2.6-2.8c-0.6-1.3-1-2.6-0.9-4.1C83.3,21.4,83.6,20.1,84.2,18.8z M94.9,20.2c-0.4-0.7-1-1.3-1.7-1.8
		c-0.7-0.4-1.5-0.6-2.2-0.6c-0.8,0-1.6,0.2-2.2,0.6c-0.7,0.4-1.3,1-1.7,1.7c-0.4,0.8-0.7,1.8-0.6,2.7c0,0.9,0.2,1.9,0.6,2.7
		c0.4,0.7,1,1.3,1.7,1.8c0.7,0.4,1.4,0.6,2.2,0.6c0.8,0,1.6-0.2,2.2-0.6c0.7-0.4,1.3-1,1.7-1.8c0.4-0.8,0.7-1.8,0.6-2.7
		C95.6,21.9,95.4,21,94.9,20.2L94.9,20.2z"/>
	<path fill="#FFFFFF" d="M105.3,18v8.3c0,0.4,0.1,0.9,0.4,1.2c0.4,0.3,0.9,0.4,1.4,0.4h1.9v2.6h-2.4c-1.2,0.1-2.3-0.3-3.2-1
		c-0.8-0.9-1.2-2-1.1-3.2V18h-1.8v-2.6h1.8v-5.2l0,0c1.7,0,3.1,1.4,3.1,3.1v2h3.7c0,1.4-1.1,2.6-2.5,2.6c0,0,0,0-0.1,0H105.3z"/>
	<path fill="#FFFFFF" d="M142.9,15.5v14.8h-1.3c-1,0-1.8-0.8-1.8-1.8l0,0c-0.5,0.6-1.1,1.1-1.9,1.5c-0.8,0.3-1.6,0.5-2.5,0.5
		c-1.1,0-2.2-0.2-3.1-0.7c-0.9-0.5-1.7-1.2-2.2-2.1c-0.6-1.1-0.8-2.2-0.8-3.4v-8.7l0,0c1.7,0,3,1.4,3,3v0v5.2c-0.1,1.1,0.3,2.2,1,3
		c1.5,1.4,3.9,1.4,5.4,0c0.7-0.8,1.1-1.9,1-3v-8.2H142.9z"/>
	<path fill="#FFFFFF" d="M150.1,15.9c0.8-0.4,1.7-0.7,2.6-0.6v3.2h-0.8c-1-0.1-2,0.2-2.7,0.9c-0.7,0.9-1,2-0.9,3.2v7.8h-3.1V15.5
		h3.1v2.1C148.7,16.9,149.3,16.3,150.1,15.9z"/>
	<path fill="#FFFFFF" d="M169.5,15.5v14.8h-1.3c-1,0-1.8-0.8-1.8-1.8l0,0c-0.5,0.6-1.2,1.1-1.9,1.4c-0.8,0.3-1.6,0.5-2.5,0.5
		c-1.1,0-2.2-0.2-3.1-0.7c-0.9-0.5-1.7-1.2-2.1-2.1c-0.6-1.1-0.8-2.2-0.8-3.4v-8.7l0,0c1.7,0,3,1.4,3,3v5.2c-0.1,1.1,0.3,2.2,1,3
		c1.5,1.4,3.9,1.4,5.4,0c0.7-0.8,1.1-1.9,1-3v-8.2H169.5z"/>
	<path fill="#FFFFFF" d="M119.6,15.2c-4.3,0-7.7,3.5-7.7,7.7c0,4.3,3.5,7.7,7.7,7.7c4.3,0,7.7-3.5,7.7-7.7
		C127.4,18.7,123.9,15.2,119.6,15.2C119.7,15.2,119.7,15.2,119.6,15.2z M119.6,27.5c-2.5,0-4.6-2.1-4.6-4.6s2.1-4.6,4.6-4.6
		c2.5,0,4.6,2.1,4.6,4.6C124.2,25.5,122.2,27.5,119.6,27.5L119.6,27.5z"/>
	<path fill="#FFFFFF" d="M119.6,36.7c-2.5,0-4.6-2.1-4.6-4.6h-3.1c0,4.3,3.5,7.7,7.7,7.7s7.7-3.5,7.7-7.7h-3.1
		C124.3,34.6,122.2,36.7,119.6,36.7C119.7,36.7,119.6,36.7,119.6,36.7z"/>
	<path fill="#FFFFFF" d="M3.7,30.1c-0.9-0.4-1.7-1-2.3-1.8c-0.6-0.7-0.9-1.6-0.9-2.6l0,0c1.5,0,3,0.5,4.1,1.5l0.2,0.1
		c0.6,0.5,1.4,0.7,2.2,0.7c0.7,0,1.5-0.1,2.1-0.5c0.5-0.3,0.8-0.8,0.7-1.3c0-0.6-0.3-1.1-0.9-1.3c-0.9-0.4-1.7-0.7-2.6-0.9
		c-1-0.3-1.9-0.6-2.9-0.9c-0.7-0.3-1.4-0.8-1.9-1.4c-0.6-0.7-0.8-1.6-0.8-2.5c0-0.8,0.3-1.6,0.7-2.3c0.5-0.7,1.3-1.3,2.1-1.6
		c1-0.4,2.1-0.6,3.2-0.6c1.6-0.1,3.1,0.4,4.4,1.3c1.1,0.9,1.7,2.2,1.8,3.7h-0.6c-1.2,0-2.4-0.6-3.3-1.5L8.8,18
		c-0.6-0.4-1.3-0.7-2.1-0.6c-0.7,0-1.4,0.1-2,0.5c-0.7,0.4-0.9,1.4-0.4,2.1c0.1,0.1,0.2,0.2,0.3,0.3c0.3,0.3,0.7,0.5,1.1,0.6
		c0.4,0.2,1.1,0.4,1.9,0.6c0.9,0.2,1.9,0.5,2.7,0.9c0.7,0.3,1.4,0.8,1.9,1.4c0.6,0.7,0.8,1.5,0.8,2.4c0,0.9-0.2,1.7-0.7,2.4
		c-0.5,0.7-1.2,1.3-2,1.7c-1,0.4-2.1,0.6-3.2,0.6C5.9,30.8,4.8,30.6,3.7,30.1z"/>
</g>
</svg>
