<?xml version="1.0" encoding="utf-8"?>
<!-- Generator: Adobe Illustrator 18.1.1, SVG Export Plug-In . SVG Version: 6.00 Build 0)  -->
<svg version="1.1" id="Layer_1" xmlns="http://www.w3.org/2000/svg" xmlns:xlink="http://www.w3.org/1999/xlink" x="0px" y="0px"
	 viewBox="0 0 190 50" enable-background="new 0 0 190 50" xml:space="preserve">
<g>
	<g>
		<path fill="#F3A228" d="M12.6,16.4c0,1.4-1.1,2.5-2.5,2.5c-1.4,0-2.5-1.1-2.5-2.5s1.1-2.5,2.5-2.5C11.5,13.9,12.6,15,12.6,16.4"/>
		<path fill="#2CBBE3" d="M27.7,16.4c0,1.4-1.1,2.5-2.5,2.5c-1.4,0-2.5-1.1-2.5-2.5s1.1-2.5,2.5-2.5C26.5,13.9,27.7,15,27.7,16.4"/>
		<path fill="#6660AA" d="M5.1,28.9c0,1.4-1.1,2.5-2.5,2.5s-2.5-1.1-2.5-2.5c0-1.4,1.1-2.5,2.5-2.5C4,26.4,5.1,27.5,5.1,28.9"/>
		<path fill="#202D44" d="M11.1,31L11.1,31l-9.3-9.3c-2-2-2-5.3,0-7.4l9.3,9.3C13.2,25.6,13.2,29,11.1,31"/>
		<path fill="#202D44" d="M20.2,31.4L20.2,31.4c-2.8,0-5-2.2-5-5v-7.5c0-2.8,2.2-5,5-5V31.4z"/>
		<path fill="#202D44" d="M22.7,22.6h5v3.8c0,2.8-2.2,5-5,5c0,0,0,0,0,0V22.6z"/>
	</g>
	<g>
		<path fill="#202D44" d="M46.4,19.3c0.6-1,1.4-1.9,2.4-2.5c1-0.6,2.2-0.9,3.3-0.9c1,0,2,0.2,2.9,0.6c0.8,0.4,1.4,1,2,1.6V16H60v14
			h-0.8C58,30.1,57,29.1,57,28c0,0,0,0,0,0l0,0c-0.5,0.7-1.2,1.3-2,1.6c-0.9,0.4-1.9,0.7-2.9,0.7c-1.2,0-2.3-0.3-3.3-0.9
			c-1-0.6-1.8-1.5-2.4-2.6c-0.6-1.2-0.9-2.5-0.9-3.8C45.5,21.7,45.8,20.4,46.4,19.3z M56.4,20.5c-0.4-0.7-0.9-1.2-1.6-1.6
			c-0.6-0.4-1.4-0.6-2.1-0.6c-0.7,0-1.5,0.2-2.1,0.6c-0.7,0.4-1.2,0.9-1.6,1.6c-0.4,0.8-0.6,1.6-0.6,2.5c0,0.9,0.2,1.8,0.6,2.5
			c0.4,0.7,0.9,1.2,1.6,1.6c0.6,0.4,1.3,0.6,2.1,0.6c0.7,0,1.5-0.2,2.1-0.6c0.7-0.4,1.2-1,1.6-1.6c0.4-0.8,0.6-1.7,0.6-2.5
			C57,22.1,56.8,21.3,56.4,20.5L56.4,20.5z"/>
		<path fill="#202D44" d="M72.2,16.5c0.8,0.5,1.5,1.2,2,2c0.5,1,0.8,2.1,0.7,3.3v8.2h-2.9v-7.8c0.1-1-0.3-2.1-0.9-2.9
			c-0.7-0.7-1.6-1.1-2.6-1c-1,0-1.9,0.3-2.6,1c-0.7,0.8-1,1.8-1,2.9v7.8h-2.9V11.2l0,0c1.6,0,2.9,1.3,2.9,2.9v3.5
			c0.5-0.6,1.1-1.1,1.9-1.4c0.8-0.3,1.6-0.5,2.5-0.5C70.4,15.8,71.4,16,72.2,16.5z"/>
		<path fill="#202D44" d="M77.5,19.3c0.6-1,1.4-1.9,2.4-2.5c1-0.6,2.2-0.9,3.3-0.9c1,0,2,0.2,2.9,0.6c0.8,0.4,1.4,1,2,1.6V16H91v14
			h-0.8c-1.2,0-2.1-0.9-2.1-2.1c0,0,0,0,0,0l0,0c-0.5,0.7-1.2,1.3-2,1.6c-0.9,0.4-1.9,0.7-2.9,0.7c-1.2,0-2.3-0.3-3.3-0.9
			c-1-0.6-1.8-1.5-2.4-2.6c-0.6-1.2-0.9-2.5-0.9-3.8C76.6,21.7,76.9,20.4,77.5,19.3z M87.5,20.5c-0.4-0.7-0.9-1.2-1.6-1.6
			c-0.6-0.4-1.4-0.6-2.1-0.6c-0.7,0-1.5,0.2-2.1,0.6c-0.7,0.4-1.2,0.9-1.6,1.6c-0.4,0.8-0.6,1.6-0.6,2.5c0,0.9,0.2,1.8,0.6,2.5
			c0.4,0.7,0.9,1.2,1.6,1.6c0.6,0.4,1.3,0.6,2.1,0.6c0.7,0,1.5-0.2,2.1-0.6c0.7-0.4,1.2-1,1.6-1.6c0.4-0.8,0.6-1.7,0.6-2.5
			C88.1,22.1,87.9,21.3,87.5,20.5L87.5,20.5z"/>
		<path fill="#202D44" d="M98.1,16.4c0.9-0.4,1.9-0.7,2.9-0.6c1.2,0,2.3,0.3,3.4,0.9c1,0.6,1.8,1.5,2.4,2.6c0.6,1.2,0.9,2.5,0.8,3.8
			c0,1.3-0.2,2.6-0.8,3.8c-0.5,1.1-1.4,2-2.4,2.6c-1,0.6-2.2,0.9-3.4,0.9c-1,0-2-0.2-2.9-0.6c-0.8-0.4-1.5-0.9-2-1.6v2h-2.9V11.2
			l0,0c1.6,0,2.9,1.3,2.9,2.9v4C96.6,17.4,97.3,16.8,98.1,16.4z M104,20.5c-0.4-0.7-0.9-1.2-1.6-1.6c-0.6-0.4-1.4-0.6-2.1-0.6
			c-0.7,0-1.4,0.2-2.1,0.6c-0.7,0.4-1.2,1-1.6,1.6c-0.4,0.8-0.6,1.6-0.6,2.5c0,0.9,0.2,1.8,0.6,2.5c0.4,0.7,0.9,1.3,1.6,1.6
			c0.6,0.4,1.3,0.6,2.1,0.6c0.7,0,1.5-0.2,2.1-0.6c0.7-0.4,1.2-1,1.6-1.6c0.4-0.8,0.6-1.7,0.6-2.5C104.6,22.1,104.4,21.3,104,20.5z"
			/>
		<path fill="#202D44" d="M110.3,19.3c1.1-2.1,3.3-3.5,5.8-3.4c1,0,2,0.2,2.9,0.6c0.8,0.4,1.4,1,2,1.6V16h2.9v14h-0.8
			c-1.1,0-2.1-0.9-2.1-2.1c0,0,0,0,0,0l0,0c-0.5,0.7-1.2,1.3-2,1.6c-0.9,0.4-1.9,0.7-2.9,0.7c-1.2,0-2.3-0.3-3.3-0.9
			c-1-0.6-1.9-1.5-2.4-2.6c-0.6-1.2-0.9-2.5-0.9-3.8C109.4,21.7,109.7,20.4,110.3,19.3z M120.4,20.5c-0.4-0.7-0.9-1.3-1.6-1.6
			c-0.6-0.4-1.4-0.6-2.1-0.6c-0.7,0-1.5,0.2-2.1,0.6c-0.7,0.4-1.2,0.9-1.6,1.6c-0.4,0.8-0.6,1.6-0.6,2.5c0,0.9,0.2,1.8,0.6,2.5
			c0.4,0.7,0.9,1.2,1.6,1.6c0.6,0.4,1.3,0.6,2.1,0.6c0.7,0,1.5-0.2,2.1-0.6c0.7-0.4,1.2-1,1.6-1.6c0.4-0.8,0.6-1.6,0.6-2.5
			C121,22.1,120.8,21.3,120.4,20.5L120.4,20.5z"/>
		<path fill="#202D44" d="M130,18.4v7.7c0,0.4,0.1,0.8,0.4,1.1c0.4,0.3,0.8,0.4,1.3,0.3h1.8v2.4h-2.3c-1.1,0.1-2.2-0.3-3-0.9
			c-0.8-0.8-1.1-1.9-1-3v-7.7h-1.6V16h1.6v-4.8l0,0c1.6,0,2.9,1.3,2.9,2.9V16h3.4c0,1.3-1,2.4-2.3,2.4c0,0,0,0,0,0H130z"/>
		<path fill="#202D44" d="M165.1,16.2v13.8h-1.2c-0.9,0-1.6-0.7-1.6-1.6l0,0c-0.5,0.6-1.1,1.1-1.7,1.4c-0.7,0.3-1.5,0.5-2.3,0.5
			c-1,0-2-0.2-2.9-0.7c-0.9-0.5-1.6-1.2-2-2c-0.5-1-0.8-2.1-0.7-3.2v-8.1l0,0c1.6,0,2.8,1.3,2.8,2.8v0v4.8c-0.1,1,0.3,2,0.9,2.8
			c1.4,1.3,3.6,1.3,5.1,0c0.7-0.8,1-1.8,0.9-2.8v-7.7H165.1z"/>
		<path fill="#202D44" d="M171.8,16.5c0.8-0.4,1.6-0.6,2.5-0.6v2.9h-0.7c-0.9-0.1-1.8,0.2-2.5,0.8c-0.7,0.8-1,1.9-0.9,2.9v7.3h-2.9
			V16.2h2.9v2C170.5,17.5,171.1,16.9,171.8,16.5z"/>
		<path fill="#202D44" d="M189.9,16.2v13.8h-1.2c-0.9,0-1.6-0.7-1.6-1.6l0,0c-0.5,0.6-1.1,1-1.8,1.3c-0.7,0.3-1.5,0.5-2.3,0.5
			c-1,0-2-0.2-2.9-0.7c-0.8-0.4-1.5-1.1-2-2c-0.5-1-0.8-2.1-0.7-3.2v-8.1l0,0c1.6,0,2.8,1.3,2.8,2.8v4.8c-0.1,1,0.3,2.1,0.9,2.8
			c1.4,1.3,3.6,1.3,5.1,0c0.7-0.8,1-1.8,0.9-2.8v-7.7H189.9z"/>
		<path fill="#202D44" d="M143.4,15.9c-4,0-7.2,3.2-7.2,7.2c0,4,3.2,7.2,7.2,7.2c4,0,7.2-3.2,7.2-7.2
			C150.6,19.1,147.4,15.9,143.4,15.9C143.4,15.9,143.4,15.9,143.4,15.9z M143.4,27.4c-2.4,0-4.3-1.9-4.3-4.3s1.9-4.3,4.3-4.3
			c2.4,0,4.3,1.9,4.3,4.3C147.7,25.4,145.8,27.4,143.4,27.4L143.4,27.4z"/>
		<path fill="#202D44" d="M143.4,35.9c-2.4,0-4.3-1.9-4.3-4.3h-2.9c0,4,3.2,7.2,7.2,7.2s7.2-3.2,7.2-7.2h-2.9
			C147.7,34,145.8,35.9,143.4,35.9C143.4,35.9,143.4,35.9,143.4,35.9z"/>
		<path fill="#202D44" d="M35.3,29.8c-0.9-0.4-1.6-1-2.2-1.7c-0.5-0.7-0.8-1.5-0.8-2.4l0,0c1.4,0,2.8,0.5,3.8,1.4l0.2,0.1
			c0.6,0.4,1.3,0.7,2,0.6c0.7,0,1.4-0.1,2-0.5c0.4-0.3,0.7-0.7,0.7-1.2c0-0.5-0.3-1-0.8-1.2c-0.8-0.4-1.6-0.7-2.5-0.9
			c-0.9-0.2-1.8-0.5-2.7-0.9c-0.7-0.3-1.3-0.7-1.8-1.3c-0.5-0.6-0.8-1.5-0.7-2.3c0-0.8,0.2-1.5,0.7-2.1c0.5-0.7,1.2-1.2,2-1.5
			c0.9-0.4,1.9-0.6,2.9-0.6c1.5-0.1,2.9,0.4,4.1,1.3c1,0.8,1.6,2.1,1.6,3.4h-0.6c-1.2,0-2.3-0.5-3-1.4L40,18.5
			c-0.6-0.4-1.3-0.6-2-0.6c-0.6,0-1.3,0.1-1.8,0.5c-0.6,0.4-0.8,1.3-0.4,1.9c0.1,0.1,0.1,0.2,0.2,0.3c0.3,0.3,0.6,0.5,1,0.6
			c0.4,0.1,1,0.3,1.8,0.6c0.9,0.2,1.7,0.5,2.6,0.8c0.7,0.3,1.3,0.7,1.8,1.3c0.5,0.6,0.8,1.4,0.8,2.2c0,0.8-0.2,1.6-0.7,2.2
			c-0.5,0.7-1.1,1.2-1.9,1.6c-0.9,0.4-1.9,0.6-2.9,0.6C37.3,30.4,36.3,30.2,35.3,29.8z"/>
	</g>
</g>
</svg>
