<?xml version="1.0"?>
<svg xmlns="http://www.w3.org/2000/svg" xmlns:xlink="http://www.w3.org/1999/xlink" xmlns:svgjs="http://svgjs.com/svgjs" version="1.1" width="512" height="512" x="0" y="0" viewBox="0 0 545.33539 545" style="enable-background:new 0 0 512 512" xml:space="preserve" class=""><g transform="matrix(1.07,0,0,1.07,2.1062500000001023,29.325468750000027)"><path xmlns="http://www.w3.org/2000/svg" d="m502.730469 449.722656h-494.207031c-4.710938 0-8.523438-3.8125-8.523438-8.523437v-268.066407c0-4.707031 3.8125-8.519531 8.523438-8.519531 4.703124 0 8.515624 3.8125 8.515624 8.519531v259.550782h477.167969v-259.550782c0-4.707031 3.816407-8.519531 8.523438-8.519531 4.703125 0 8.519531 3.8125 8.519531 8.519531v268.066407c0 4.710937-3.816406 8.523437-8.519531 8.523437zm0 0" fill="#ffffff" data-original="#000000" style="" class=""/><path xmlns="http://www.w3.org/2000/svg" d="m447.21875 270.785156h-166.03125c-4.703125 0-8.519531-3.816406-8.519531-8.519531 0-4.707031 3.816406-8.519531 8.519531-8.519531h166.03125c30.660156 0 46.988281-46.816406 46.988281-80.613282v-72.765624h-477.167969v72.765624c0 33.148438 46.472657 80.613282 78.929688 80.613282h125.566406c4.710938 0 8.523438 3.8125 8.523438 8.519531 0 4.703125-3.8125 8.519531-8.523438 8.519531h-125.566406c-41.253906 0-95.96875-55.671875-95.96875-97.652344v-81.28125c0-4.707031 3.8125-8.523437 8.523438-8.523437h494.207031c4.703125 0 8.519531 3.816406 8.519531 8.523437v81.28125c0 40.550782-19.867188 97.652344-64.03125 97.652344zm0 0" fill="#ffffff" data-original="#000000" style="" class=""/><path xmlns="http://www.w3.org/2000/svg" d="m281.1875 287.828125h-59.648438c-4.703124 0-8.515624-3.8125-8.515624-8.523437v-33.472657c0-14.183593 11.496093-26.171875 25.109374-26.171875h26.464844c13.613282 0 25.109375 11.988282 25.109375 26.171875v33.472657c0 4.710937-3.8125 8.523437-8.519531 8.523437zm-51.125-17.042969h42.605469v-24.953125c0-4.6875-3.925781-9.128906-8.070313-9.128906h-26.464844c-4.144531 0-8.070312 4.441406-8.070312 9.128906zm0 0" fill="#ffffff" data-original="#000000" style="" class=""/><path xmlns="http://www.w3.org/2000/svg" d="m264.597656 321.914062h-26.464844c-14.082031 0-25.109374-10.570312-25.109374-24.058593v-18.550781c0-4.703126 3.8125-8.519532 8.515624-8.519532h59.648438c4.707031 0 8.519531 3.816406 8.519531 8.519532v18.550781c0 13.488281-11.027343 24.058593-25.109375 24.058593zm-34.535156-34.085937v10.027344c0 4.820312 4.183594 7.011719 8.070312 7.011719h26.464844c3.886719 0 8.070313-2.191407 8.070313-7.011719v-10.027344zm0 0" fill="#ffffff" data-original="#000000" style="" class=""/><path xmlns="http://www.w3.org/2000/svg" d="m340.617188 100.367188h-28.824219c-4.496094 0-8.214844-3.488282-8.503907-7.972657-1.835937-28.5-23.1875-48.410156-51.925781-48.410156-28.734375 0-50.085937 19.910156-51.925781 48.410156-.285156 4.484375-4.007812 7.972657-8.5 7.972657h-28.828125c-2.324219 0-4.542969-.945313-6.152344-2.628907-1.609375-1.675781-2.457031-3.9375-2.355469-6.261719 2.367188-54.09375 43.488282-93.355468 97.761719-93.355468 54.277344 0 95.398438 39.261718 97.769531 93.355468.097657 2.324219-.753906 4.585938-2.359374 6.261719-1.609376 1.683594-3.828126 2.628907-6.15625 2.628907zm-21.261719-17.039063h11.917969c-5.769532-40-38.113282-68.167969-79.910157-68.167969-41.792969 0-74.136719 28.167969-79.90625 68.167969h11.917969c5.722656-33.117187 33.183594-56.382813 67.988281-56.382813 34.808594 0 62.269531 23.265626 67.992188 56.382813zm0 0" fill="#ffffff" data-original="#000000" style="" class=""/></g></svg>
