<?xml version="1.0"?>
<svg xmlns="http://www.w3.org/2000/svg" xmlns:xlink="http://www.w3.org/1999/xlink" xmlns:svgjs="http://svgjs.com/svgjs" version="1.1" width="512" height="512" x="0" y="0" viewBox="0 0 201.392 201.392" style="enable-background:new 0 0 512 512" xml:space="preserve" class=""><g transform="matrix(0.9400000000000001,0,0,0.9400000000000002,6.041759777069075,6.0417647552490195)">
<g xmlns="http://www.w3.org/2000/svg">
	<g>
		<path d="M140.214,15.101c-12.723-11.39-29.153-16.616-46.278-14.72C66.773,3.393,44.851,25.295,41.811,52.46    c-2.169,19.364,5.246,38.552,19.835,51.328c6.871,6.019,10.813,14.534,10.813,23.361v12.803c0,1.884,1.529,3.413,3.413,3.413    h49.649c1.884,0,3.413-1.529,3.413-3.417v-12.803c0-8.83,3.934-17.338,10.795-23.342c12.86-11.252,20.234-27.484,20.234-44.532    C159.963,42.437,152.765,26.338,140.214,15.101z M135.232,98.67c-8.341,7.299-13.124,17.679-13.124,28.479v9.39H79.286h-0.002    v-9.387c0-10.793-4.789-21.18-13.143-28.496C53.042,87.182,46.646,70.622,48.593,53.223C51.281,29.2,70.667,9.832,94.689,7.168    c15.159-1.683,29.713,2.942,40.972,13.022c11.107,9.943,17.476,24.189,17.476,39.084C153.137,74.353,146.611,88.713,135.232,98.67    z" fill="#ffffff" data-original="#000000" style="" class=""/>
	</g>
</g>
<g xmlns="http://www.w3.org/2000/svg">
	<g>
		<path d="M131.416,136.539h-61.44c-1.884,0-3.413,1.529-3.413,3.413v17.068c0,7.528,6.123,13.652,13.652,13.652h40.965    c7.526,0,13.65-6.124,13.65-13.652v-17.068C134.829,138.068,133.3,136.539,131.416,136.539z M128.003,157.02    c0,3.763-3.062,6.825-6.823,6.825H80.214c-3.763,0-6.825-3.062-6.825-6.825v-13.655h54.613V157.02z" fill="#ffffff" data-original="#000000" style="" class=""/>
	</g>
</g>
<g xmlns="http://www.w3.org/2000/svg">
	<g>
		<path d="M65.494,44.507c-1.814-0.514-3.7,0.539-4.215,2.354c-1.022,3.618-1.543,7.378-1.543,11.172    c0,1.884,1.529,3.413,3.413,3.413c1.884,0,3.413-1.529,3.413-3.413c0-3.166,0.433-6.298,1.287-9.312    C68.363,46.906,67.308,45.02,65.494,44.507z" fill="#ffffff" data-original="#000000" style="" class=""/>
	</g>
</g>
<g xmlns="http://www.w3.org/2000/svg">
	<g>
		<path d="M100.696,17.072c-14.413,0-27.93,7.716-35.279,20.135c-0.961,1.621-0.422,3.715,1.2,4.675    c0.546,0.323,1.145,0.476,1.736,0.476c1.166,0,2.302-0.599,2.941-1.676c6.124-10.351,17.391-16.783,29.402-16.783    c1.884,0,3.413-1.529,3.413-3.413S102.58,17.072,100.696,17.072z" fill="#ffffff" data-original="#000000" style="" class=""/>
	</g>
</g>
<g xmlns="http://www.w3.org/2000/svg">
	<g>
		<path d="M123.944,185.742c-0.642-0.891-1.671-1.418-2.768-1.418h-40.96c-1.097,0-2.126,0.527-2.768,1.418    c-0.642,0.891-0.816,2.034-0.469,3.075l3.413,10.24c0.464,1.394,1.768,2.335,3.238,2.335h34.133c1.469,0,2.773-0.94,3.238-2.335    l3.413-10.24C124.762,187.776,124.586,186.633,123.944,185.742z M115.302,194.565H86.089l-1.138-3.413h31.49L115.302,194.565z" fill="#ffffff" data-original="#000000" style="" class=""/>
	</g>
</g>
<g xmlns="http://www.w3.org/2000/svg">
	<g>
		<path d="M121.176,174.085h-40.96c-1.884,0-3.413,1.529-3.413,3.413v10.24c0,1.884,1.529,3.413,3.413,3.413h40.96    c1.884,0,3.413-1.529,3.413-3.413v-10.24C124.589,175.615,123.06,174.085,121.176,174.085z M117.763,184.325H83.629v-3.413h34.133    V184.325z" fill="#ffffff" data-original="#000000" style="" class=""/>
	</g>
</g>
<g xmlns="http://www.w3.org/2000/svg">
	<g>
		<path d="M121.176,163.845h-40.96c-1.884,0-3.413,1.529-3.413,3.413v10.24c0,1.884,1.529,3.413,3.413,3.413h40.96    c1.884,0,3.413-1.529,3.413-3.413v-10.24C124.589,165.375,123.06,163.845,121.176,163.845z M117.763,174.085H83.629v-3.413h34.133    V174.085z" fill="#ffffff" data-original="#000000" style="" class=""/>
	</g>
</g>
<g xmlns="http://www.w3.org/2000/svg">
	<g>
		<path d="M189.443,54.619h-17.067c-1.884,0-3.413,1.529-3.413,3.413s1.529,3.413,3.413,3.413h17.067    c1.884,0,3.413-1.529,3.413-3.413S191.327,54.619,189.443,54.619z" fill="#ffffff" data-original="#000000" style="" class=""/>
	</g>
</g>
<g xmlns="http://www.w3.org/2000/svg">
	<g>
		<path d="M175.105,4.784c-1.128-1.507-3.265-1.812-4.779-0.683l-13.653,10.24c-1.507,1.13-1.813,3.27-0.681,4.779    c0.671,0.894,1.696,1.365,2.734,1.365c0.712,0,1.43-0.224,2.045-0.683l13.653-10.24C175.931,8.433,176.236,6.293,175.105,4.784z" fill="#ffffff" data-original="#000000" style="" class=""/>
	</g>
</g>
<g xmlns="http://www.w3.org/2000/svg">
	<g>
		<path d="M29.016,54.619H11.949c-1.884,0-3.413,1.529-3.413,3.413s1.529,3.413,3.413,3.413h17.067c1.884,0,3.413-1.529,3.413-3.413    S30.9,54.619,29.016,54.619z" fill="#ffffff" data-original="#000000" style="" class=""/>
	</g>
</g>
<g xmlns="http://www.w3.org/2000/svg">
	<g>
		<path d="M44.719,14.341L31.066,4.101c-1.512-1.13-3.649-0.823-4.779,0.683c-1.132,1.507-0.828,3.647,0.681,4.779l13.653,10.24    c0.614,0.461,1.333,0.683,2.045,0.683c1.038,0,2.063-0.473,2.734-1.365C46.532,17.613,46.228,15.473,44.719,14.341z" fill="#ffffff" data-original="#000000" style="" class=""/>
	</g>
</g>
<g xmlns="http://www.w3.org/2000/svg">
</g>
<g xmlns="http://www.w3.org/2000/svg">
</g>
<g xmlns="http://www.w3.org/2000/svg">
</g>
<g xmlns="http://www.w3.org/2000/svg">
</g>
<g xmlns="http://www.w3.org/2000/svg">
</g>
<g xmlns="http://www.w3.org/2000/svg">
</g>
<g xmlns="http://www.w3.org/2000/svg">
</g>
<g xmlns="http://www.w3.org/2000/svg">
</g>
<g xmlns="http://www.w3.org/2000/svg">
</g>
<g xmlns="http://www.w3.org/2000/svg">
</g>
<g xmlns="http://www.w3.org/2000/svg">
</g>
<g xmlns="http://www.w3.org/2000/svg">
</g>
<g xmlns="http://www.w3.org/2000/svg">
</g>
<g xmlns="http://www.w3.org/2000/svg">
</g>
<g xmlns="http://www.w3.org/2000/svg">
</g>
</g></svg>
