<?xml version="1.0"?>
<svg xmlns="http://www.w3.org/2000/svg" xmlns:xlink="http://www.w3.org/1999/xlink" xmlns:svgjs="http://svgjs.com/svgjs" version="1.1" width="512" height="512" x="0" y="0" viewBox="0 0 177.493 177.493" style="enable-background:new 0 0 512 512" xml:space="preserve" class=""><g transform="matrix(0.8999999999999999,0,0,0.9,8.87465019226073,8.874649810790999)">
<g xmlns="http://www.w3.org/2000/svg">
	<g>
		<path d="M129.77,126.082c-0.498-7.97-2.71-11.646-5.052-15.536c-1.84-3.057-3.741-6.217-5.284-12.387    c-3.555-14.223-10.117-53.941-10.184-54.34c-0.271-1.649-1.696-2.859-3.367-2.859H71.751c-1.672,0-3.098,1.21-3.369,2.86    c-0.068,0.413-6.84,41.492-10.175,54.306c-1.359,5.219-3.147,8.172-4.878,11.027c-2.417,3.987-4.915,8.108-5.466,16.927    c-0.935,14.985,6.951,28.667,7.287,29.242c0.613,1.048,1.734,1.691,2.947,1.691h61.44c1.253,0,2.405-0.684,3-1.785    C122.87,154.617,130.646,140.088,129.77,126.082z M117.418,150.187H60.154c-1.896-3.818-6.108-13.561-5.478-23.68    c0.447-7.144,2.231-10.086,4.49-13.815c1.893-3.121,4.038-6.661,5.647-12.844c2.93-11.254,8.212-42.375,9.83-52.06h28.348    c1.589,9.491,6.723,39.631,9.82,52.028c1.79,7.159,4.157,11.092,6.059,14.251c2.144,3.562,3.693,6.137,4.087,12.442    C123.546,135.929,119.312,146.145,117.418,150.187z" fill="#ffffff" data-original="#000000" style="" class=""/>
	</g>
</g>
<g xmlns="http://www.w3.org/2000/svg">
	<g>
		<path d="M119.467,150.187h-61.44c-13.175,0-23.893,10.718-23.893,23.893c0,1.884,1.529,3.413,3.413,3.413h102.4    c1.884,0,3.413-1.529,3.413-3.413C143.361,160.905,132.643,150.187,119.467,150.187z M41.304,170.667    c1.585-7.781,8.482-13.653,16.725-13.653h61.44c8.242,0,15.136,5.873,16.724,13.653H41.304z" fill="#ffffff" data-original="#000000" style="" class=""/>
	</g>
</g>
<g xmlns="http://www.w3.org/2000/svg">
	<g>
		<path d="M142.581,4.657c-0.647-0.788-1.613-1.244-2.633-1.244h-21.618c-1.884,0-3.413,1.529-3.413,3.413v6.827h-9.102V3.413    c0-1.884-1.529-3.413-3.413-3.413H75.094c-1.884,0-3.413,1.529-3.413,3.413v10.24h-9.105V6.827c0-1.884-1.529-3.413-3.413-3.413    H37.544c-1.019,0-1.985,0.456-2.633,1.244c-0.647,0.787-0.91,1.821-0.715,2.823l7.315,37.547c0.312,1.603,1.717,2.76,3.35,2.76    h87.772c1.633,0,3.04-1.157,3.348-2.76l7.315-37.547C143.492,6.479,143.229,5.444,142.581,4.657z M129.822,40.96H47.675    l-5.984-30.72h14.061v6.827c0,1.884,1.529,3.413,3.413,3.413h15.928c1.884,0,3.413-1.529,3.413-3.413V6.827h20.48v10.24    c0,1.884,1.529,3.413,3.413,3.413h15.93c1.884,0,3.413-1.529,3.413-3.413V10.24h14.061L129.822,40.96z" fill="#ffffff" data-original="#000000" style="" class=""/>
	</g>
</g>
<g xmlns="http://www.w3.org/2000/svg">
</g>
<g xmlns="http://www.w3.org/2000/svg">
</g>
<g xmlns="http://www.w3.org/2000/svg">
</g>
<g xmlns="http://www.w3.org/2000/svg">
</g>
<g xmlns="http://www.w3.org/2000/svg">
</g>
<g xmlns="http://www.w3.org/2000/svg">
</g>
<g xmlns="http://www.w3.org/2000/svg">
</g>
<g xmlns="http://www.w3.org/2000/svg">
</g>
<g xmlns="http://www.w3.org/2000/svg">
</g>
<g xmlns="http://www.w3.org/2000/svg">
</g>
<g xmlns="http://www.w3.org/2000/svg">
</g>
<g xmlns="http://www.w3.org/2000/svg">
</g>
<g xmlns="http://www.w3.org/2000/svg">
</g>
<g xmlns="http://www.w3.org/2000/svg">
</g>
<g xmlns="http://www.w3.org/2000/svg">
</g>
</g></svg>
