<?xml version="1.0"?>
<svg xmlns="http://www.w3.org/2000/svg" xmlns:xlink="http://www.w3.org/1999/xlink" xmlns:svgjs="http://svgjs.com/svgjs" version="1.1" width="512" height="512" x="0" y="0" viewBox="0 0 191.147 191.147" style="enable-background:new 0 0 512 512" xml:space="preserve" class=""><g transform="matrix(0.9500000000000002,0,0,0.9499999999999997,4.778675079345675,4.778650170564674)">
<g xmlns="http://www.w3.org/2000/svg">
	<g>
		<path d="M14.472,1.843C6.492,1.843,0,8.335,0,16.316c0,7.98,6.492,14.473,14.473,14.473c7.98,0,14.472-6.492,14.472-14.473    C28.945,8.335,22.453,1.843,14.472,1.843z M14.473,23.962c-4.216,0-7.646-3.43-7.646-7.646c0-4.216,3.43-7.646,7.646-7.646    c4.215,0,7.646,3.43,7.646,7.646C22.118,20.531,18.688,23.962,14.473,23.962z" fill="#ffffff" data-original="#000000" style="" class=""/>
	</g>
</g>
<g xmlns="http://www.w3.org/2000/svg">
	<g>
		<path d="M110.319,9.216c-14.078,0-25.532,11.453-25.532,25.532c0,14.078,11.453,25.532,25.532,25.532s25.532-11.453,25.532-25.532    C135.851,20.669,124.397,9.216,110.319,9.216z M110.319,53.453c-10.313,0-18.705-8.392-18.705-18.705    c0-10.313,8.392-18.705,18.705-18.705s18.705,8.392,18.705,18.705C129.024,45.061,120.632,53.453,110.319,53.453z" fill="#ffffff" data-original="#000000" style="" class=""/>
	</g>
</g>
<g xmlns="http://www.w3.org/2000/svg">
	<g>
		<path d="M158.242,86.63c-18.144,0-32.905,14.761-32.905,32.905s14.761,32.905,32.905,32.905s32.905-14.761,32.905-32.905    S176.386,86.63,158.242,86.63z M158.242,145.613c-14.38,0-26.078-11.699-26.078-26.078c0-14.38,11.699-26.078,26.078-26.078    c14.38,0,26.078,11.698,26.078,26.078S172.623,145.613,158.242,145.613z" fill="#ffffff" data-original="#000000" style="" class=""/>
	</g>
</g>
<g xmlns="http://www.w3.org/2000/svg">
	<g>
		<path d="M47.65,108.749c-22.209,0-40.277,18.068-40.277,40.277c0,22.209,18.068,40.277,40.277,40.277s40.277-18.069,40.277-40.277    C87.927,126.817,69.859,108.749,47.65,108.749z M47.65,182.477c-18.446,0-33.451-15.005-33.451-33.451    s15.005-33.451,33.451-33.451c18.446,0,33.451,15.007,33.451,33.451C81.101,167.472,66.096,182.477,47.65,182.477z" fill="#ffffff" data-original="#000000" style="" class=""/>
	</g>
</g>
<g xmlns="http://www.w3.org/2000/svg">
	<g>
		<path d="M47.65,166.639c-9.713,0-17.613-7.902-17.613-17.613c0-1.884-1.529-3.413-3.413-3.413s-3.413,1.529-3.413,3.413    c0,13.476,10.964,24.439,24.439,24.439c1.884,0,3.413-1.529,3.413-3.413C51.063,168.168,49.534,166.639,47.65,166.639z" fill="#ffffff" data-original="#000000" style="" class=""/>
	</g>
</g>
<g xmlns="http://www.w3.org/2000/svg">
	<g>
		<path d="M88.793,27.701L26.124,16.642c-1.85-0.326-3.627,0.911-3.954,2.768c-0.328,1.857,0.911,3.627,2.768,3.954l62.669,11.059    c0.201,0.036,0.399,0.053,0.597,0.053c1.625,0,3.065-1.166,3.357-2.821C91.889,29.798,90.65,28.029,88.793,27.701z" fill="#ffffff" data-original="#000000" style="" class=""/>
	</g>
</g>
<g xmlns="http://www.w3.org/2000/svg">
	<g>
		<path d="M100.932,53.89c-1.645-0.925-3.724-0.341-4.649,1.302l-33.178,58.982c-0.923,1.644-0.341,3.724,1.302,4.649    c0.531,0.297,1.104,0.439,1.671,0.439c1.193,0,2.352-0.626,2.978-1.741l33.178-58.982    C103.158,56.895,102.576,54.815,100.932,53.89z" fill="#ffffff" data-original="#000000" style="" class=""/>
	</g>
</g>
<g xmlns="http://www.w3.org/2000/svg">
	<g>
		<path d="M132.064,129.766c-0.457-1.831-2.316-2.939-4.139-2.485l-44.237,11.059c-1.83,0.457-2.942,2.311-2.485,4.139    c0.389,1.553,1.78,2.587,3.309,2.587c0.273,0,0.551-0.032,0.829-0.102l44.237-11.059    C131.408,133.448,132.521,131.594,132.064,129.766z" fill="#ffffff" data-original="#000000" style="" class=""/>
	</g>
</g>
<g xmlns="http://www.w3.org/2000/svg">
</g>
<g xmlns="http://www.w3.org/2000/svg">
</g>
<g xmlns="http://www.w3.org/2000/svg">
</g>
<g xmlns="http://www.w3.org/2000/svg">
</g>
<g xmlns="http://www.w3.org/2000/svg">
</g>
<g xmlns="http://www.w3.org/2000/svg">
</g>
<g xmlns="http://www.w3.org/2000/svg">
</g>
<g xmlns="http://www.w3.org/2000/svg">
</g>
<g xmlns="http://www.w3.org/2000/svg">
</g>
<g xmlns="http://www.w3.org/2000/svg">
</g>
<g xmlns="http://www.w3.org/2000/svg">
</g>
<g xmlns="http://www.w3.org/2000/svg">
</g>
<g xmlns="http://www.w3.org/2000/svg">
</g>
<g xmlns="http://www.w3.org/2000/svg">
</g>
<g xmlns="http://www.w3.org/2000/svg">
</g>
</g></svg>
