<?xml version="1.0"?>
<svg xmlns="http://www.w3.org/2000/svg" xmlns:xlink="http://www.w3.org/1999/xlink" xmlns:svgjs="http://svgjs.com/svgjs" version="1.1" width="512" height="512" x="0" y="0" viewBox="0 0 670.00109 670" style="enable-background:new 0 0 512 512" xml:space="preserve" class=""><g transform="matrix(1.01,0,0,1.01,21.87354431152346,26.95105795979498)"><path xmlns="http://www.w3.org/2000/svg" d="m310.175781 164.515625c-1.394531 0-2.800781-.277344-4.113281-.824219-85.550781-35.875-95.550781-88.867187-96.472656-95.457031-.742188-3.9375-4.90625-29.707031 9.15625-49.152344 8.457031-11.691406 21.375-18.582031 38.390625-20.460937 17.519531-1.980469 32.160156 1.878906 43.410156 11.40625 3.914063 3.316406 7.078125 7.054687 9.628906 10.917968 2.550781-3.855468 5.722657-7.601562 9.636719-10.917968 11.246094-9.519532 25.839844-13.367188 43.402344-11.40625 17.019531 1.878906 29.9375 8.769531 38.394531 20.460937 14.0625 19.445313 9.90625 45.207031 9.160156 49.152344-.917969 6.589844-10.921875 59.582031-96.472656 95.457031-1.320313.550782-2.722656.824219-4.121094.824219zm-44.546875-145.09375c-1.96875 0-4.015625.121094-6.140625.355469-10.90625 1.210937-18.574219 5.046875-23.429687 11.707031-9.4375 12.929687-5.574219 32.683594-5.53125 32.882813.378906 2.761718 6.660156 45.839843 79.648437 77.917968 74.003907-32.519531 79.453125-76.433594 79.5-76.882812.035157-.359375.089844-.714844.160157-1.078125.039062-.152344 3.894531-19.90625-5.539063-32.839844-4.863281-6.671875-12.527344-10.5-23.429687-11.707031-11.511719-1.253906-20.691407.914062-27.304688 6.5-11.484375 9.722656-12.742188 27.015625-12.757812 27.1875-.308594 5.640625-4.976563 10.050781-10.628907 10.050781-5.652343 0-10.320312-4.410156-10.632812-10.050781-.003907-.125-1.269531-17.566406-12.855469-27.273438-5.375-4.492187-12.441406-6.769531-21.058594-6.769531zm0 0" fill="#ffffff" data-original="#000000" style="" class=""/><path xmlns="http://www.w3.org/2000/svg" d="m94.804688 206.785156c-43.046876 0-78.0625-35.015625-78.0625-78.050781 0-43.039063 35.015624-78.050781 78.0625-78.050781 43.042968 0 78.054687 35.011718 78.054687 78.050781 0 43.035156-35.011719 78.050781-78.054687 78.050781zm0-134.8125c-31.300782 0-56.761719 25.460938-56.761719 56.761719 0 31.296875 25.460937 56.761719 56.761719 56.761719 31.296874 0 56.761718-25.464844 56.761718-56.761719 0-31.300781-25.464844-56.761719-56.761718-56.761719zm0 0" fill="#ffffff" data-original="#000000" style="" class=""/><path xmlns="http://www.w3.org/2000/svg" d="m94.398438 611.671875c-35.21875 0-63.875-28.65625-63.875-63.878906v-74.523438h-21.289063c-5.886719 0-10.652344-4.765625-10.652344-10.644531v-181.230469c0-35.085937 28.546875-63.628906 63.628907-63.628906h64.378906c35.085937 0 63.625 28.546875 63.625 63.628906v181.230469c0 5.882812-4.765625 10.644531-10.644532 10.644531h-21.300781v74.53125c0 35.21875-28.644531 63.871094-63.871093 63.871094zm-74.527344-159.695313h21.300781c5.878906 0 10.640625 4.769532 10.640625 10.648438v85.167969c0 23.476562 19.105469 42.585937 42.585938 42.585937 23.480468 0 42.582031-19.109375 42.582031-42.585937v-85.167969c0-5.878906 4.773437-10.648438 10.652343-10.648438h21.289063v-170.582031c0-23.34375-18.992187-42.339843-42.332031-42.339843h-64.378906c-23.34375 0-42.339844 18.996093-42.339844 42.339843zm0 0" fill="#ffffff" data-original="#000000" style="" class=""/><path xmlns="http://www.w3.org/2000/svg" d="m512.746094 206.785156c-43.039063 0-78.054688-35.015625-78.054688-78.050781 0-43.039063 35.015625-78.050781 78.054688-78.050781 43.042968 0 78.058594 35.011718 78.058594 78.050781 0 43.035156-35.015626 78.050781-78.058594 78.050781zm0-134.8125c-31.296875 0-56.761719 25.460938-56.761719 56.761719 0 31.296875 25.464844 56.761719 56.761719 56.761719 31.300781 0 56.769531-25.464844 56.769531-56.761719 0-31.300781-25.46875-56.761719-56.769531-56.761719zm0 0" fill="#ffffff" data-original="#000000" style="" class=""/><path xmlns="http://www.w3.org/2000/svg" d="m509.597656 611.671875c-35.222656 0-63.882812-28.65625-63.882812-63.878906v-74.523438h-42.578125c-3.691407 0-7.121094-1.910156-9.054688-5.054687-1.945312-3.144532-2.117187-7.0625-.460937-10.363282l52.359375-104.308593-15.136719-75.855469c-2.953125-14.785156.839844-29.941406 10.390625-41.589844 9.566406-11.65625 23.679687-18.332031 38.75-18.332031h65.535156c15.070313 0 29.191407 6.679687 38.75 18.332031 9.550781 11.660156 13.347657 26.816406 10.390625 41.589844l-15.1875 76.128906 46.316406 104.492188c1.464844 3.292968 1.167969 7.105468-.800781 10.128906-1.96875 3.019531-5.328125 4.832031-8.929687 4.832031h-42.582032v74.53125c0 35.21875-28.660156 63.871094-63.878906 63.871094zm-89.203125-159.695313h35.972657c5.878906 0 10.648437 4.769532 10.648437 10.648438v85.167969c0 23.476562 19.101563 42.585937 42.582031 42.585937 23.476563 0 42.589844-19.109375 42.589844-42.585937v-85.167969c0-5.878906 4.757812-10.648438 10.636719-10.648438h36.871093l-41.058593-92.613281c-.898438-2.011719-1.136719-4.246093-.714844-6.40625l15.855469-79.4375c1.695312-8.5-.476563-17.222656-5.976563-23.925781-5.492187-6.699219-13.617187-10.539062-22.28125-10.539062h-65.535156c-8.667969 0-16.792969 3.839843-22.289063 10.539062-5.488281 6.707031-7.675781 15.425781-5.984374 23.925781l15.867187 79.4375c.46875 2.328125.136719 4.742188-.929687 6.867188zm0 0" fill="#ffffff" data-original="#000000" style="" class=""/><path xmlns="http://www.w3.org/2000/svg" d="m303.773438 341.609375c-31.886719 0-57.828126-25.941406-57.828126-57.832031 0-31.882813 25.941407-57.832032 57.828126-57.832032 31.890624 0 57.835937 25.949219 57.835937 57.832032 0 31.890625-25.945313 57.832031-57.835937 57.832031zm0-94.375c-20.148438 0-36.539063 16.398437-36.539063 36.546875 0 20.152344 16.386719 36.539062 36.539063 36.539062 20.152343 0 36.546874-16.390624 36.546874-36.539062s-16.394531-36.546875-36.546874-36.546875zm0 0" fill="#ffffff" data-original="#000000" style="" class=""/><path xmlns="http://www.w3.org/2000/svg" d="m301.996094 611.671875c-20.542969 0-37.257813-16.71875-37.257813-37.265625v-26.613281h-21.632812c-5.875 0-10.644531-4.761719-10.644531-10.652344v-129.621094c0-28.90625 23.519531-52.429687 52.414062-52.429687h33.902344c28.902344 0 52.414062 23.523437 52.414062 52.429687v129.621094c0 5.890625-4.761718 10.652344-10.640625 10.652344h-21.292969v26.613281c0 20.546875-16.714843 37.265625-37.261718 37.265625zm-48.242188-85.167969h21.625c5.878906 0 10.648438 4.765625 10.648438 10.636719v37.265625c0 8.808594 7.164062 15.972656 15.96875 15.972656 8.808594 0 15.972656-7.164062 15.972656-15.972656v-37.265625c0-5.871094 4.765625-10.636719 10.644531-10.636719h21.292969v-118.984375c0-17.167969-13.960938-31.140625-31.128906-31.140625h-33.894532c-17.164062 0-31.128906 13.972656-31.128906 31.140625zm0 0" fill="#ffffff" data-original="#000000" style="" class=""/></g></svg>
