<?xml version="1.0"?>
<svg xmlns="http://www.w3.org/2000/svg" xmlns:xlink="http://www.w3.org/1999/xlink" xmlns:svgjs="http://svgjs.com/svgjs" version="1.1" width="512" height="512" x="0" y="0" viewBox="0 0 423.253 423.253" style="enable-background:new 0 0 512 512" xml:space="preserve" class=""><g transform="matrix(0.9600000000000001,0,0,0.96,8.465060844421316,8.465079956054694)">
<g xmlns="http://www.w3.org/2000/svg">
	<g>
		<g>
			<path d="M414.157,127.498C380.576,50.046,304.387,0,220.054,0C103.421,0,8.533,94.935,8.533,211.627     s94.887,211.627,211.521,211.627c58.409,0,114.794-24.552,154.692-67.362c1.495-1.604,2.13-3.826,1.703-5.98     c-0.427-2.15-1.86-3.966-3.854-4.881c-38.779-17.76-63.84-56.726-63.84-99.27c0-56.177,43.803-103.943,99.721-108.745     c2.191-0.188,4.154-1.417,5.28-3.304C414.88,131.83,415.031,129.516,414.157,127.498z M295.103,245.76     c0,44.667,24.542,85.828,63.27,107.363C321.543,389.12,271.64,409.6,220.054,409.6c-109.104,0-197.868-88.812-197.868-197.973     S110.95,13.653,220.054,13.653c75.827,0,144.619,43.257,177.739,110.957C339.493,134.325,295.103,185.781,295.103,245.76z" fill="#ffffff" data-original="#000000" style="" class=""/>
			<path d="M260.99,300.373c-18.814,0-34.116,15.312-34.116,34.133s15.302,34.133,34.116,34.133c18.814,0,34.12-15.312,34.12-34.133     S279.805,300.373,260.99,300.373z M260.99,354.987c-11.284,0-20.463-9.185-20.463-20.48s9.178-20.48,20.463-20.48     c11.288,0,20.466,9.185,20.466,20.48S272.278,354.987,260.99,354.987z" fill="#ffffff" data-original="#000000" style="" class=""/>
		</g>
	</g>
</g>
<g xmlns="http://www.w3.org/2000/svg">
	<g>
		<path d="M274.637,47.787c-26.337,0-47.763,21.436-47.763,47.787s21.425,47.787,47.763,47.787    c26.341,0,47.766-21.436,47.766-47.787S300.977,47.787,274.637,47.787z M274.637,129.707c-18.807,0-34.109-15.312-34.109-34.133    s15.302-34.133,34.109-34.133c18.811,0,34.113,15.312,34.113,34.133S293.448,129.707,274.637,129.707z" fill="#ffffff" data-original="#000000" style="" class=""/>
	</g>
</g>
<g xmlns="http://www.w3.org/2000/svg">
	<g>
		<path d="M158.645,68.267c-26.337,0-47.763,21.436-47.763,47.787c0,26.351,21.425,47.787,47.763,47.787    s47.766-21.436,47.766-47.787C206.411,89.702,184.986,68.267,158.645,68.267z M158.645,150.187    c-18.807,0-34.109-15.312-34.109-34.133c0-18.821,15.302-34.133,34.109-34.133s34.113,15.312,34.113,34.133    C192.758,134.874,177.456,150.187,158.645,150.187z" fill="#ffffff" data-original="#000000" style="" class=""/>
	</g>
</g>
<g xmlns="http://www.w3.org/2000/svg">
	<g>
		<path d="M97.236,170.667c-26.337,0-47.763,21.436-47.763,47.787s21.425,47.787,47.763,47.787    c26.341,0,47.766-21.436,47.766-47.787S123.576,170.667,97.236,170.667z M97.236,252.587c-18.807,0-34.109-15.312-34.109-34.133    s15.302-34.133,34.109-34.133c18.811,0,34.113,15.312,34.113,34.133S116.046,252.587,97.236,252.587z" fill="#ffffff" data-original="#000000" style="" class=""/>
	</g>
</g>
<g xmlns="http://www.w3.org/2000/svg">
	<g>
		<path d="M165.468,279.893c-26.337,0-47.763,21.436-47.763,47.787s21.425,47.787,47.763,47.787s47.766-21.436,47.766-47.787    S191.809,279.893,165.468,279.893z M165.468,361.813c-18.807,0-34.109-15.312-34.109-34.133s15.302-34.133,34.109-34.133    c18.807,0,34.113,15.312,34.113,34.133S184.279,361.813,165.468,361.813z" fill="#ffffff" data-original="#000000" style="" class=""/>
	</g>
</g>
<g xmlns="http://www.w3.org/2000/svg">
</g>
<g xmlns="http://www.w3.org/2000/svg">
</g>
<g xmlns="http://www.w3.org/2000/svg">
</g>
<g xmlns="http://www.w3.org/2000/svg">
</g>
<g xmlns="http://www.w3.org/2000/svg">
</g>
<g xmlns="http://www.w3.org/2000/svg">
</g>
<g xmlns="http://www.w3.org/2000/svg">
</g>
<g xmlns="http://www.w3.org/2000/svg">
</g>
<g xmlns="http://www.w3.org/2000/svg">
</g>
<g xmlns="http://www.w3.org/2000/svg">
</g>
<g xmlns="http://www.w3.org/2000/svg">
</g>
<g xmlns="http://www.w3.org/2000/svg">
</g>
<g xmlns="http://www.w3.org/2000/svg">
</g>
<g xmlns="http://www.w3.org/2000/svg">
</g>
<g xmlns="http://www.w3.org/2000/svg">
</g>
</g></svg>
