<?xml version="1.0" encoding="utf-8"?>
<!-- Generator: Adobe Illustrator 18.1.1, SVG Export Plug-In . SVG Version: 6.00 Build 0)  -->
<svg version="1.1" id="Layer_1" xmlns="http://www.w3.org/2000/svg" xmlns:xlink="http://www.w3.org/1999/xlink" x="0px" y="0px"
	 viewBox="0 0 100 19.7" enable-background="new 0 0 100 19.7" xml:space="preserve">
<g>
	<path fill="#FFFFFF" d="M9.3,6.2c0.4-0.7,0.9-1.2,1.5-1.6C11.4,4.2,12.2,4,12.9,4c0.6,0,1.3,0.1,1.8,0.4c0.5,0.3,0.9,0.6,1.2,1V4.2
		h1.8V13h-0.5c-0.7,0-1.3-0.6-1.3-1.3c0,0,0,0,0,0l0,0c-0.3,0.4-0.8,0.8-1.3,1c-0.6,0.3-1.2,0.4-1.8,0.4c-0.7,0-1.4-0.2-2.1-0.6
		c-0.6-0.4-1.2-1-1.5-1.6c-0.4-0.7-0.6-1.6-0.6-2.4C8.7,7.7,8.9,6.9,9.3,6.2z M15.6,7c-0.2-0.4-0.6-0.8-1-1
		c-0.4-0.2-0.9-0.4-1.3-0.4c-0.5,0-0.9,0.1-1.3,0.3c-0.4,0.2-0.8,0.6-1,1c-0.3,0.5-0.4,1-0.4,1.6c0,0.6,0.1,1.1,0.4,1.6
		c0.2,0.4,0.6,0.8,1,1c0.4,0.2,0.8,0.4,1.3,0.4c0.5,0,0.9-0.1,1.3-0.4c0.4-0.2,0.8-0.6,1-1c0.3-0.5,0.4-1,0.4-1.6
		C16,8,15.8,7.5,15.6,7L15.6,7z"/>
	<path fill="#FFFFFF" d="M25.5,4.5c0.5,0.3,1,0.7,1.3,1.3c0.3,0.6,0.5,1.4,0.5,2.1V13h-1.8V8.1c0-0.7-0.2-1.3-0.6-1.8
		c-0.4-0.4-1-0.7-1.6-0.6c-0.6,0-1.2,0.2-1.6,0.6C21.2,6.8,21,7.4,21,8.1V13h-1.8V1.2l0,0C20.2,1.2,21,2,21,3v2.2
		c0.3-0.4,0.7-0.7,1.2-0.9c0.5-0.2,1-0.3,1.6-0.3C24.4,4,25,4.2,25.5,4.5z"/>
	<path fill="#FFFFFF" d="M28.8,6.2c0.4-0.7,0.9-1.2,1.5-1.6C31,4.2,31.7,4,32.5,4c0.6,0,1.3,0.1,1.8,0.4c0.5,0.3,0.9,0.6,1.2,1V4.2
		h1.8V13h-0.5c-0.7,0-1.3-0.6-1.3-1.3c0,0,0,0,0,0l0,0c-0.3,0.4-0.8,0.8-1.3,1c-0.6,0.3-1.2,0.4-1.8,0.4c-0.7,0-1.4-0.2-2.1-0.6
		c-0.6-0.4-1.2-1-1.5-1.6c-0.4-0.7-0.6-1.6-0.6-2.4C28.3,7.7,28.5,6.9,28.8,6.2z M35.1,7c-0.2-0.4-0.6-0.8-1-1
		c-0.4-0.2-0.9-0.4-1.3-0.4c-0.5,0-0.9,0.1-1.3,0.3c-0.4,0.2-0.8,0.6-1,1c-0.3,0.5-0.4,1-0.4,1.6c0,0.6,0.1,1.1,0.4,1.6
		c0.2,0.4,0.6,0.8,1,1c0.4,0.2,0.8,0.4,1.3,0.4c0.5,0,0.9-0.1,1.3-0.4c0.4-0.2,0.8-0.6,1-1c0.3-0.5,0.4-1,0.4-1.6
		C35.5,8,35.4,7.5,35.1,7L35.1,7z"/>
	<path fill="#FFFFFF" d="M41.8,4.4C42.4,4.2,43,4,43.6,4c0.7,0,1.5,0.2,2.1,0.6c0.6,0.4,1.2,0.9,1.5,1.6c0.4,0.7,0.5,1.5,0.5,2.4
		c0,0.8-0.2,1.6-0.5,2.4c-0.3,0.7-0.9,1.2-1.5,1.6c-0.6,0.4-1.4,0.6-2.1,0.6c-0.6,0-1.3-0.1-1.8-0.4c-0.5-0.2-0.9-0.6-1.3-1V13h-1.8
		V1.2l0,0c1,0,1.8,0.8,1.8,1.8v2.5C40.9,5,41.3,4.7,41.8,4.4z M45.5,7c-0.2-0.4-0.6-0.8-1-1c-0.4-0.2-0.9-0.3-1.3-0.3
		c-0.5,0-0.9,0.1-1.3,0.4c-0.4,0.2-0.8,0.6-1,1c-0.3,0.5-0.4,1-0.4,1.6c0,0.6,0.1,1.1,0.4,1.6c0.2,0.4,0.6,0.8,1,1
		c0.4,0.2,0.8,0.4,1.3,0.4c0.5,0,0.9-0.1,1.3-0.4c0.4-0.3,0.8-0.6,1-1c0.3-0.5,0.4-1,0.4-1.6C45.9,8,45.8,7.5,45.5,7z"/>
	<path fill="#FFFFFF" d="M49.5,6.2C50.2,4.9,51.6,4,53.2,4c0.6,0,1.3,0.1,1.8,0.4c0.5,0.2,0.9,0.6,1.2,1V4.2h1.8V13h-0.5
		c-0.7,0-1.3-0.6-1.3-1.3c0,0,0,0,0,0l0,0c-0.3,0.4-0.8,0.8-1.3,1c-0.6,0.3-1.2,0.4-1.8,0.4c-0.7,0-1.4-0.2-2.1-0.6
		c-0.6-0.4-1.2-1-1.5-1.6C49.2,10.2,49,9.4,49,8.6C49,7.7,49.2,6.9,49.5,6.2z M55.8,7c-0.2-0.4-0.6-0.8-1-1
		c-0.4-0.2-0.9-0.4-1.3-0.4c-0.5,0-0.9,0.1-1.3,0.3c-0.4,0.2-0.8,0.6-1,1c-0.3,0.5-0.4,1-0.4,1.6c0,0.6,0.1,1.1,0.4,1.6
		c0.2,0.4,0.6,0.8,1,1c0.4,0.2,0.8,0.4,1.3,0.4c0.5,0,0.9-0.1,1.3-0.4c0.4-0.2,0.8-0.6,1-1c0.3-0.5,0.4-1,0.4-1.6
		C56.2,8,56.1,7.5,55.8,7L55.8,7z"/>
	<path fill="#FFFFFF" d="M61.9,5.7v4.9c0,0.3,0.1,0.5,0.2,0.7c0.2,0.2,0.5,0.2,0.8,0.2h1.1V13h-1.4c-0.7,0-1.4-0.2-1.9-0.6
		c-0.5-0.5-0.7-1.2-0.7-1.9V5.7h-1V4.2h1v-3l0,0c1,0,1.8,0.8,1.8,1.8v1.2h2.1c0,0.8-0.6,1.5-1.5,1.5c0,0,0,0,0,0H61.9z"/>
	<path fill="#FFFFFF" d="M84,4.3v8.7h-0.8c-0.6,0-1-0.5-1-1l0,0c-0.3,0.4-0.7,0.7-1.1,0.9c-0.5,0.2-1,0.3-1.5,0.3
		c-0.6,0-1.3-0.1-1.8-0.4c-0.5-0.3-1-0.7-1.3-1.3c-0.3-0.6-0.5-1.3-0.5-2V4.3l0,0c1,0,1.8,0.8,1.8,1.8v0v3.1c0,0.6,0.2,1.3,0.6,1.8
		c0.9,0.8,2.3,0.8,3.2,0c0.4-0.5,0.6-1.1,0.6-1.8V4.3H84z"/>
	<path fill="#FFFFFF" d="M88.2,4.5c0.5-0.3,1-0.4,1.6-0.4V6h-0.5c-0.6,0-1.2,0.1-1.6,0.5c-0.4,0.5-0.6,1.2-0.5,1.9v4.6h-1.8V4.3h1.8
		v1.3C87.4,5.1,87.8,4.7,88.2,4.5z"/>
	<path fill="#FFFFFF" d="M99.6,4.3v8.7h-0.8c-0.6,0-1-0.5-1-1l0,0c-0.3,0.4-0.7,0.7-1.1,0.8c-0.5,0.2-1,0.3-1.5,0.3
		c-0.6,0-1.3-0.1-1.8-0.4c-0.5-0.3-1-0.7-1.3-1.2c-0.3-0.6-0.5-1.3-0.5-2V4.3l0,0c1,0,1.8,0.8,1.8,1.8v3.1c0,0.6,0.2,1.3,0.6,1.8
		c0.9,0.8,2.3,0.8,3.2,0c0.4-0.5,0.6-1.1,0.6-1.8V4.3H99.6z"/>
	<path fill="#FFFFFF" d="M70.4,4.1c-2.5,0-4.5,2-4.5,4.5c0,2.5,2,4.5,4.5,4.5c2.5,0,4.5-2,4.5-4.5C74.9,6.1,72.9,4.1,70.4,4.1
		C70.4,4.1,70.4,4.1,70.4,4.1z M70.4,11.3c-1.5,0-2.7-1.2-2.7-2.7s1.2-2.7,2.7-2.7s2.7,1.2,2.7,2.7C73.1,10.1,71.8,11.3,70.4,11.3
		L70.4,11.3z"/>
	<path fill="#FFFFFF" d="M70.4,16.7c-1.5,0-2.7-1.2-2.7-2.7h-1.8c0,2.5,2,4.5,4.5,4.5s4.5-2,4.5-4.5h-1.8
		C73.1,15.5,71.9,16.7,70.4,16.7C70.4,16.7,70.4,16.7,70.4,16.7z"/>
	<path fill="#FFFFFF" d="M2.3,12.8c-0.5-0.2-1-0.6-1.4-1.1c-0.3-0.4-0.5-1-0.5-1.5l0,0c0.9,0,1.8,0.3,2.4,0.9l0.1,0.1
		c0.4,0.3,0.8,0.4,1.3,0.4c0.4,0,0.9-0.1,1.2-0.3c0.3-0.2,0.4-0.5,0.4-0.8c0-0.3-0.2-0.6-0.5-0.8c-0.5-0.2-1-0.4-1.6-0.5
		C3.2,9.1,2.6,8.9,2.1,8.7C1.7,8.5,1.3,8.2,1,7.9C0.6,7.5,0.5,6.9,0.5,6.4c0-0.5,0.1-0.9,0.4-1.3c0.3-0.4,0.7-0.8,1.2-1
		C2.8,3.9,3.4,3.8,4,3.8C4.9,3.7,5.9,4,6.6,4.6c0.6,0.5,1,1.3,1,2.2H7.3c-0.7,0-1.4-0.3-1.9-0.9L5.2,5.7C4.9,5.5,4.4,5.3,4,5.4
		c-0.4,0-0.8,0.1-1.1,0.3C2.4,5.9,2.3,6.5,2.6,6.9C2.6,6.9,2.7,7,2.7,7c0.2,0.2,0.4,0.3,0.6,0.4C3.6,7.5,4,7.6,4.5,7.8
		C5,7.9,5.6,8.1,6.1,8.3c0.4,0.2,0.8,0.5,1.1,0.8c0.3,0.4,0.5,0.9,0.5,1.4c0,0.5-0.1,1-0.4,1.4c-0.3,0.4-0.7,0.8-1.2,1
		c-0.6,0.2-1.2,0.4-1.9,0.3C3.5,13.2,2.9,13.1,2.3,12.8z"/>
</g>
</svg>
